<?xml version="1.0" encoding="utf-8"?>
<!-- Generator: Adobe Illustrator 18.1.1, SVG Export Plug-In . SVG Version: 6.00 Build 0)  -->
<svg version="1.1" id="Layer_1" xmlns="http://www.w3.org/2000/svg" xmlns:xlink="http://www.w3.org/1999/xlink" x="0px" y="0px"
	 viewBox="0 0 100 100" enable-background="new 0 0 100 100" xml:space="preserve">
<rect x="51" y="0.3" fill="#B41F24" stroke="#B41F24" stroke-miterlimit="10" width="1.5" height="12.5"/>
<rect x="32.4" y="7.6" transform="matrix(-0.3173 -0.9483 0.9483 -0.3173 43.0923 47.6424)" fill="#B41F24" stroke="#B41F24" stroke-miterlimit="10" width="12.5" height="1.5"/>
<rect x="-0.3" y="49.9" transform="matrix(1 -5.473656e-03 5.473656e-03 1 -0.2773 3.316867e-02)" fill="#B41F24" stroke="#B41F24" stroke-miterlimit="10" width="12.5" height="1.5"/>
<rect x="2.9" y="36.6" transform="matrix(0.9463 0.3232 -0.3232 0.9463 12.5494 -0.9615)" fill="#B41F24" stroke="#B41F24" stroke-miterlimit="10" width="12.5" height="1.5"/>
<rect x="7.9" y="23" transform="matrix(0.7979 0.6027 -0.6027 0.7979 17.1545 -3.7533)" fill="#B41F24" stroke="#B41F24" stroke-miterlimit="10" width="12.5" height="1.5"/>
<rect x="19.3" y="13" transform="matrix(-0.6122 -0.7907 0.7907 -0.6122 30.3472 42.3043)" fill="#B41F24" stroke="#B41F24" stroke-miterlimit="10" width="12.5" height="1.5"/>
<rect x="63.7" y="2.9" transform="matrix(-0.9397 -0.3421 0.3421 -0.9397 121.933 39.9017)" fill="#B41F24" stroke="#B41F24" stroke-miterlimit="10" width="1.5" height="12.5"/>
<rect x="75" y="9.4" transform="matrix(0.7608 0.649 -0.649 0.7608 28.2825 -45.4137)" fill="#B41F24" stroke="#B41F24" stroke-miterlimit="10" width="1.5" height="12.5"/>
<rect x="78" y="23.7" transform="matrix(-0.8323 0.5544 -0.5544 -0.8323 167.8346 -1.9487)" fill="#B41F24" stroke="#B41F24" stroke-miterlimit="10" width="12.5" height="1.5"/>
<rect x="84.9" y="37.3" transform="matrix(-0.9667 0.256 -0.256 -0.9667 189.0557 51.3936)" fill="#B41F24" stroke="#B41F24" stroke-miterlimit="10" width="12.5" height="1.5"/>
<rect x="92" y="44.4" transform="matrix(3.946966e-03 -1 1 3.946966e-03 41.7052 143.2225)" fill="#B41F24" stroke="#B41F24" stroke-miterlimit="10" width="1.5" height="12.5"/>
<rect x="49.1" y="87.4" fill="#B41F24" stroke="#B41F24" stroke-miterlimit="10" width="1.5" height="12.5"/>
<rect x="57.5" y="90.1" transform="matrix(-0.3302 -0.9439 0.9439 -0.3302 -0.9138 181.0174)" fill="#B41F24" stroke="#B41F24" stroke-miterlimit="10" width="12.5" height="1.5"/>
<rect x="84.9" y="62.3" transform="matrix(-0.9463 -0.3232 0.3232 -0.9463 157.0945 152.197)" fill="#B41F24" stroke="#B41F24" stroke-miterlimit="10" width="12.5" height="1.5"/>
<rect x="78.8" y="73.8" transform="matrix(-0.7979 -0.6027 0.6027 -0.7979 107.9235 185.3218)" fill="#B41F24" stroke="#B41F24" stroke-miterlimit="10" width="12.5" height="1.5"/>
<rect x="70.2" y="83.4" transform="matrix(-0.6452 -0.764 0.764 -0.6452 61.4049 196.9064)" fill="#B41F24" stroke="#B41F24" stroke-miterlimit="10" width="12.5" height="1.5"/>
<rect x="34.8" y="85.1" transform="matrix(-0.9461 -0.324 0.324 -0.9461 39.5311 189.332)" fill="#B41F24" stroke="#B41F24" stroke-miterlimit="10" width="1.5" height="12.5"/>
<rect x="22.4" y="79" transform="matrix(-0.8297 -0.5582 0.5582 -0.8297 -5.2979 168.8408)" fill="#B41F24" stroke="#B41F24" stroke-miterlimit="10" width="1.5" height="12.5"/>
<rect x="7.9" y="76.2" transform="matrix(0.8323 -0.5544 0.5544 0.8323 -40.276 20.7636)" fill="#B41F24" stroke="#B41F24" stroke-miterlimit="10" width="12.5" height="1.5"/>
<rect x="2.7" y="63.7" transform="matrix(0.9537 -0.3006 0.3006 0.9537 -18.9763 5.6738)" fill="#B41F24" stroke="#B41F24" stroke-miterlimit="10" width="12.5" height="1.5"/>
<rect x="-14.7" y="20.3" fill="#FFFFFF" stroke="#000000" stroke-miterlimit="10" width="0.4" height="0"/>
<rect x="19" y="46.9" fill="#B41F24" stroke="#000000" stroke-width="0.5" stroke-miterlimit="10" width="23.9" height="6"/>
<polygon fill="#B41F24" stroke="#000000" stroke-width="0.5" stroke-miterlimit="10" points="29.6,25.8 40.8,44.5 46.6,41.4 
	35.4,22.6 "/>
<polygon fill="#B41F24" stroke="#000000" stroke-width="0.5" stroke-miterlimit="10" points="68.2,26.5 63.1,23.2 51.9,40.6 
	57.1,43.9 "/>
<rect x="58.1" y="46.9" fill="#B41F24" stroke="#000000" stroke-width="0.5" stroke-miterlimit="10" width="21.2" height="6"/>
<polygon fill="#B41F24" stroke="#000000" stroke-width="0.5" stroke-miterlimit="10" points="51.2,59.4 63.2,78.2 68.9,74.8 
	56.9,55.9 "/>
<polygon fill="#B41F24" stroke="#000000" stroke-width="0.5" stroke-miterlimit="10" points="28.6,73.3 34,76.9 46.6,59.3 
	41.2,55.7 "/>
<path fill="#FFFFFF" stroke="#000000" stroke-width="0.5" stroke-linecap="round" stroke-linejoin="round" d="M49,12.4
	c-20.7,0-37.5,16.8-37.5,37.5c0,20.7,16.8,37.5,37.5,37.5s37.5-16.8,37.5-37.5C86.5,29.2,69.7,12.4,49,12.4z M49,79.9
	c-16.6,0-30-13.4-30-30s13.4-30,30-30s30,13.4,30,30S65.6,79.9,49,79.9z"/>
<circle fill="#FFFFFF" stroke="#000000" stroke-width="0.5" stroke-miterlimit="10" cx="49.1" cy="49.9" r="10"/>
</svg>
